<svg width="34" height="38" fill="none" xmlns="http://www.w3.org/2000/svg"><g clip-path="url(#clip0)"><path d="M6.07 20.72v-2.26a143.265 143.265 0 0120.17-1.33c0 .6 0 1.21-.06 1.82a25.518 25.518 0 016-1.82A16.67 16.67 0 00.19 20.39l5.88.33zm21.17 3.51c-1.16 1.28-1.39 1.2-1.39 3.45v9.18A16.64 16.64 0 0033.32 23a17.302 17.302 0 00-.32-3.1 33.109 33.109 0 00-5.76 4.33zM6.36 25.72s-3.79-1.44-5.19-1.83A8.541 8.541 0 000 23.61a16.65 16.65 0 008.68 14L6.36 25.72z" fill="#FDC305"/><path d="M26.29 17.12A89.799 89.799 0 0024.89.65S24.75-.64 24 .41a14.22 14.22 0 00-1.2 3.94 70.34 70.34 0 00-12.77.34C9.24 2 7.85.75 7.18 1c-.67.25-.72 3.31-.72 3.31l-.33 14.1a143.211 143.211 0 0120.16-1.29z" fill="#F06351"/><path d="M12.41 14c0-.09 1 .68 1.41.92.41.24.61.42.61.59 0 .17-.27.34-.63.34s-.91-.12-1-.27h1.23A8.34 8.34 0 0112.41 14zm7.48.11l-1.09 1.33c0 .06-.17.35.18.3a7.351 7.351 0 001.22-.29c.11 0 .07-.19-.11-.17-.18.02-.69.05-1 .11l.84-1.26s.07-.13-.04-.02zm-3.14 6.09a2.3 2.3 0 001.09-1c.28-.65 0-.91-.44-1a2.43 2.43 0 00-1.74.34c-.39.36-.34.72-.05 1a5.34 5.34 0 001.14.66z" fill="#000"/><path d="M16.35 21.45a1.92 1.92 0 01-.46.6 1.73 1.73 0 01-1 .38 2.15 2.15 0 01-1.47-.43 2.3 2.3 0 01-.53-.44c-.1-.11-.223-.2-.36-.26 0 0 .75 4.1 2.57 4.75 1.82.65 2.14-.75 2.2-1.13a5.61 5.61 0 00-.82-3.23c-.02-.31-.03-.11-.13-.24z" fill="#F06351"/><path d="M14.71 22.59a3.44 3.44 0 01-2.361-1.466.14.14 0 01.031-.154.14.14 0 01.2 0 3.26 3.26 0 002.11 1.3 2.09 2.09 0 001.63-1l.14-.19.1.21s.37.76 1 .8c.63.04 1.05-.41 1.61-1.28a.14.14 0 01.2 0 .15.15 0 01.05.2c-.64 1-1.27 1.44-1.88 1.4a1.549 1.549 0 01-1.12-.76 2.26 2.26 0 01-1.71.94z" fill="#000"/><path d="M26.24 18.92a58.634 58.634 0 00-5.07 5.19A31.633 31.633 0 0115.88 29c-.22-.53-1.62-1.51-1.62-1.51s-3.13-2.14-5.18-3.82a34.139 34.139 0 01-3.13-3l-2-.11a22.57 22.57 0 0012 8.8c.86-.14 3.27-1.86 5.07-3.26a58.13 58.13 0 005.94-5.89 6.15 6.15 0 001.14-2c-1.1.39-1.86.71-1.86.71z" fill="#F06351"/></g><defs><clipPath id="clip0"><path fill="#fff" d="M0 0h33.32v37.61H0z"/></clipPath></defs></svg>2379 21.6785 16.0816 21.8825 15.89 22.05C15.6052 22.2791 15.2551 22.4122 14.89 22.43C14.3638 22.472 13.8406 22.3189 13.42 22C13.2222 21.8808 13.0436 21.7324 12.89 21.56C12.7895 21.4491 12.6669 21.3605 12.53 21.3C12.53 21.3 13.28 25.4 15.1 26.05C16.92 26.7 17.24 25.3 17.3 24.92C17.3601 23.7851 17.0742 22.6588 16.48 21.69C16.46 21.38 16.45 21.58 16.35 21.45Z" fill="#F06351"/>
<path d="M14.71 22.59C14.2453 22.5247 13.7989 22.3651 13.3982 22.1209C12.9975 21.8767 12.651 21.5531 12.38 21.17C12.3667 21.157 12.3561 21.1414 12.3489 21.1242C12.3417 21.1071 12.338 21.0886 12.338 21.07C12.338 21.0514 12.3417 21.0329 12.3489 21.0158C12.3561 20.9986 12.3667 20.983 12.38 20.97C12.393 20.9567 12.4086 20.9461 12.4258 20.9389C12.4429 20.9317 12.4614 20.928 12.48 20.928C12.4986 20.928 12.5171 20.9317 12.5342 20.9389C12.5514 20.9461 12.567 20.9567 12.58 20.97C13.0848 21.6642 13.843 22.1313 14.69 22.27C15.0217 22.245 15.3426 22.1413 15.6261 21.9674C15.9096 21.7934 16.1475 21.5544 16.32 21.27L16.46 21.08L16.56 21.29C16.56 21.29 16.93 22.05 17.56 22.09C18.19 22.13 18.61 21.68 19.17 20.81C19.183 20.7967 19.1986 20.7861 19.2158 20.7789C19.2329 20.7717 19.2514 20.768 19.27 20.768C19.2886 20.768 19.3071 20.7717 19.3242 20.7789C19.3414 20.7861 19.357 20.7967 19.37 20.81C19.4023 20.8306 19.4255 20.8629 19.4348 20.9C19.4441 20.9372 19.4388 20.9766 19.42 21.01C18.78 22.01 18.15 22.45 17.54 22.41C17.308 22.3763 17.0867 22.2904 16.8927 22.1587C16.6987 22.0271 16.5371 21.8531 16.42 21.65C16.2233 21.9245 15.9676 22.1514 15.6717 22.3141C15.3758 22.4767 15.0471 22.571 14.71 22.59Z" fill="black"/>
<path d="M26.24 18.92C24.4445 20.5437 22.7512 22.277 21.17 24.11C19.5986 25.9361 17.8238 27.5768 15.88 29C15.66 28.47 14.26 27.49 14.26 27.49C14.26 27.49 11.13 25.35 9.08 23.67C7.97414 22.7373 6.9287 21.7353 5.95 20.67L3.95 20.56C6.84018 24.7655 11.0702 27.8676 15.95 29.36C16.81 29.22 19.22 27.5 21.02 26.1C23.1389 24.2819 25.124 22.3134 26.96 20.21C27.4625 19.621 27.8493 18.9425 28.1 18.21C27 18.6 26.24 18.92 26.24 18.92Z" fill="#F06351"/>
</g>
<defs>
<clipPath id="clip0">
<rect width="33.32" height="37.61" fill="white"/>
</clipPath>
</defs>
</svg>
